<svg data-v-0dd9719b="" version="1.0" xmlns="http://www.w3.org/2000/svg" xmlns:xlink="http://www.w3.org/1999/xlink" width="100%" height="100%" viewBox="0 0 340.000000 250.000000" preserveAspectRatio="xMidYMid meet" color-interpolation-filters="sRGB" style="margin: auto;"> <rect data-v-0dd9719b="" x="0" y="0" width="100%" height="100%" fill="#fefcfb" fill-opacity="1" class="background"></rect> <rect data-v-0dd9719b="" x="0" y="0" width="100%" height="100%" fill="url(#watermark)" fill-opacity="1" class="watermarklayer"></rect> <g data-v-0dd9719b="" fill="#25263a" class="icon-text-wrapper icon-svg-group iconsvg" transform="translate(49.24500274658203,96.15412330627441)"><g class="iconsvg-imagesvg" transform="translate(0,0)"><g><rect fill="#25263a" fill-opacity="0" stroke-width="2" x="0" y="0" width="60" height="57.6917529639138" class="image-rect"></rect> <svg filter="url(#colors6516813727)" x="0" y="0" width="60" height="57.6917529639138" filtersec="colorsf926583164" class="image-svg-svg primary" style="overflow: visible;"><svg xmlns="http://www.w3.org/2000/svg" viewBox="0.0016422271728515625 0.02052033133804798 100.43121337890625 96.56777954101562"><title>资源 1</title><path d="M50.62 84.94C36.05 75 28.22 62.05 26.46 44.09L12.37 54.74c-.94-8.65 6.48-22 15.39-27.4L26 43.45c8.5-1.54 16.4-4.07 24.31-4.1s15.62 2.5 24.17 4c-.49-4.84-1-10.26-1.56-15.59C80.43 30.83 88 43.93 88.48 55L74.13 44c-1.84 17.8-9.5 31-24.56 41.17l17.83 7.07c-8.87 5.86-26 5.83-34.54-.29 3-1 6-1.73 8.89-2.84s5.35-2.5 8.87-4.17zM70.66 25c-13.74-7.42-27-7.41-40.69 0a18.46 18.46 0 0 1 .63-2.89A48.33 48.33 0 0 1 48 .74a4.42 4.42 0 0 1 3.73-.52C59.05 3.92 68.18 15.79 70.66 25zM89.74 58.06a48.33 48.33 0 0 1 10.69 26.4A3.09 3.09 0 0 1 99.28 87a48.24 48.24 0 0 1-28.41 4.75c13.7-11.52 16.43-17.5 18.87-33.69zM11.1 57.7c.9 14.84 6.9 25.64 19 33.8a39.59 39.59 0 0 1-19.58-1C-1.8 86.62-1.17 88 1.82 75.43c1.47-6.2 4.47-11.77 9.28-17.73z" fill="#000000"></path></svg></svg> <defs><filter id="colors6516813727"><feColorMatrix type="matrix" values="0 0 0 0 0.7578125  0 0 0 0 0.28125  0 0 0 0 0.1328125  0 0 0 1 0" class="icon-fecolormatrix"></feColorMatrix></filter> <filter id="colorsf926583164"><feColorMatrix type="matrix" values="0 0 0 0 0.99609375  0 0 0 0 0.99609375  0 0 0 0 0.99609375  0 0 0 1 0" class="icon-fecolormatrix"></feColorMatrix></filter> <filter id="colorsb9139668161"><feColorMatrix type="matrix" values="0 0 0 0 0  0 0 0 0 0  0 0 0 0 0  0 0 0 1 0" class="icon-fecolormatrix"></feColorMatrix></filter></defs></g></g> <g transform="translate(67,0.3996257781982422)"><g data-gra="path-name" fill-rule="" class="tp-name iconsvg-namesvg" transform="translate(0,0)"><g transform="scale(1)"><g><path d="M4.54-37.17L4.54-37.17 4.95-37.48Q10.66-36.36 11.97-33.48L11.97-33.48Q12.73-31.72 11.61-30.6L11.61-30.6Q10.44-29.43 8.73-30.51L8.73-30.51Q8.59-30.6 8.46-30.69L8.46-30.69Q7.74-33.84 4.54-37.17ZM1.53-26.91L1.53-26.91 1.93-27.22Q7.42-26.5 8.78-23.76L8.78-23.76Q9.58-22.14 8.5-20.97L8.5-20.97Q7.42-19.8 5.71-20.7L5.71-20.7Q5.58-20.79 5.44-20.88L5.44-20.88Q4.72-23.98 1.53-26.91ZM41.31-13.77L41.31-13.77 28.98-13.77Q31.23-10.08 35.01-7.02L35.01-7.02Q38.79-4 42.8-2.43L42.8-2.43 42.7-1.93Q40-1.44 39.1 1.89L39.1 1.89Q32.13-2.83 28.48-12.55L28.48-12.55 28.48 2.56Q28.48 2.92 27.31 3.38L27.31 3.38Q26.19 3.82 25.11 3.82L25.11 3.82 24.3 3.82 24.3-8.87Q19.66-2.34 11.25 2.16L11.25 2.16 10.75 1.53Q14.4-1.35 17.32-5.4L17.32-5.4Q20.29-9.45 22.05-13.77L22.05-13.77 12.91-13.77 12.55-15.07 24.3-15.07 24.3-20.88 28.48-20.29 28.48-15.07 35.5-15.07Q35.5-18.36 39.02-18.36L39.02-18.36Q42.52-17.77 42.52-14.49L42.52-14.49Q42.34-13.77 41.31-13.77ZM21.2-32.17L21.2-32.17 25.15-31.68Q25.02-28.8 24.79-27.72L24.79-27.72Q24.61-26.68 23.94-25.11L23.94-25.11Q23.31-23.58 22.23-22.54 21.15-21.51 19.13-20.34 17.1-19.17 14.26-18.31L14.26-18.31 13.72-18.99Q15.25-19.71 16.43-20.56L16.43-20.56Q17.59-21.46 18.36-22.18L18.36-22.18Q19.13-22.95 19.66-24.03L19.66-24.03Q20.2-25.15 20.47-25.88L20.47-25.88Q20.79-26.59 20.93-27.95L20.93-27.95Q21.11-29.29 21.11-29.97L21.11-29.97Q21.15-30.64 21.2-32.17ZM30.02-23.67L30.02-31.95 33.66-31.45 33.66-24.43Q33.66-24.03 33.8-23.89L33.8-23.89Q33.98-23.76 34.6-23.76L34.6-23.76 38.66-23.76Q39.1-23.76 39.46-23.85L39.46-23.85Q39.87-23.85 40.41-24.03L40.41-24.03 40.81-24.03Q42.39-23.45 42.39-22.54L42.39-22.54Q42.39-21.46 41.09-21.02 39.78-20.56 36.27-20.56L36.27-20.56 33.48-20.56Q31.27-20.56 30.64-21.2L30.64-21.2Q30.02-21.87 30.02-23.67L30.02-23.67ZM40.73-37.08L40.73-37.08Q43.83-35.46 43.42-33.12L43.42-33.12Q43.11-32.67 41.76-32.63L41.76-32.63Q39.38-30.33 36.67-28.21L36.67-28.21 36.18-28.48Q36.31-29.02 36.67-30.78L36.67-30.78Q37.08-32.58 37.26-33.44L37.26-33.44 18.09-33.44Q18.54-28.71 16.2-27.27L16.2-27.27Q14.8-26.41 13.63-27.27L13.63-27.27Q13.23-27.54 13.05-27.99L13.05-27.99Q12.82-29.29 13.63-30.38L13.63-30.38Q16.38-32.09 16.65-37.35L16.65-37.35 17.32-37.35Q17.68-36.09 17.91-34.74L17.91-34.74 37.03-34.74Q37.44-37.08 40.73-37.08ZM12.38-28.44L12.96-28.35Q12.6-26.14 11.61-22.14L11.61-22.14Q10.62-18.18 9.9-15.34L9.9-15.34Q9.22-12.51 9.04-11.61L9.04-11.61Q8.59-9.27 8.59-7.6L8.59-7.6Q8.64-6.88 9.4-4.37L9.4-4.37Q10.21-1.84 10.13 0.4L10.13 0.4Q10.08 1.98 9.18 2.92L9.18 2.92Q8.32 3.87 6.93 3.87L6.93 3.87Q6.21 3.87 5.67 3.28 5.13 2.7 4.95 1.57L4.95 1.57Q5.49-1.84 5.35-4.54 5.22-7.25 4.5-7.74L4.5-7.74Q3.82-8.28 2.29-8.41L2.29-8.41 2.29-9.36 4.23-9.36Q4.68-9.36 4.91-9.49 5.13-9.63 5.4-10.3L5.4-10.3Q6.21-11.88 12.38-28.44L12.38-28.44ZM62.64-12.96L62.64-12.96 62.77-12.42Q57.15-8.46 49.41-4.05L49.41-4.05Q49.23-3.19 48.42-2.88L48.42-2.88 46.03-7.92Q48.06-8.41 52.16-9.67L52.16-9.67 52.16-24.21 46.94-24.21 46.58-25.52 52.16-25.52 52.16-37.26 56.3-36.67 56.3-25.52 57.2-25.52Q57.02-28.8 59.89-28.8L59.89-28.8Q62.82-28.21 63-24.93L63-24.93Q62.86-24.21 61.83-24.21L61.83-24.21 56.3-24.21 56.3-10.93Q60.34-12.2 62.64-12.96ZM63.63-17.5L63.63-17.5 63.63-36.77 67.72-36.18 67.72-17.46Q67.68-10.17 65.34-4.81L65.34-4.81Q63.05 0.49 57.28 3.92L57.28 3.92 56.74 3.42Q60.62-0.4 62.1-5.49L62.1-5.49Q63.63-10.62 63.63-17.5ZM73.35-2.02L72.54-2.02 72.54-35.01 76.59-34.42 76.59-3.33Q76.59-3.01 75.47-2.52L75.47-2.52Q74.38-2.02 73.35-2.02L73.35-2.02ZM81.81 3.82L81.81-36.95 86.13-36.31 86.13 2.29Q86.13 2.7 84.96 3.24L84.96 3.24Q83.79 3.82 82.66 3.82L82.66 3.82 81.81 3.82ZM117.31-30.29L117.31-30.29 112.72-30.29 112.36-31.59 118.94-31.59 118.94-37.89 122.94-37.35 122.94-31.59 126.13-31.59Q126.13-34.56 129.33-34.56L129.33-34.56Q132.53-33.98 132.53-31L132.53-31Q132.34-30.29 131.31-30.29L131.31-30.29 122.94-30.29 122.94-27.95Q129.6-26.55 131.63-23.09L131.63-23.09Q132.84-21.06 131.81-19.75L131.81-19.75Q130.77-18.5 128.97-19.44L128.97-19.44Q128.3-21.24 126.59-23.22L126.59-23.22Q124.92-25.2 122.94-26.82L122.94-26.82 122.94-18.68Q122.94-18.36 121.81-17.95L121.81-17.95Q120.73-17.55 119.66-17.55L119.66-17.55 118.94-17.55 118.94-25.15Q115.29-20.56 109.48-17.68L109.48-17.68 109.03-18.31Q114.66-22.72 117.31-30.29ZM105.03-26.82L105.03-26.82 105.03-17.95Q105.03-17.64 103.95-17.19L103.95-17.19Q102.87-16.79 101.83-16.79L101.83-16.79 101.11-16.79 101.11-25.38Q97.69-20.61 92.25-17.55L92.25-17.55 91.8-18.18Q96.89-22.77 99.36-30.29L99.36-30.29 92.97-30.29 92.61-31.59 101.11-31.59 101.11-38.02 105.03-37.48 105.03-31.59 105.97-31.59Q106.06-34.38 109.03-34.38L109.03-34.38Q112.05-33.8 111.96-31L111.96-31Q111.83-30.29 110.79-30.29L110.79-30.29 105.03-30.29 105.03-28.17Q110.03-27.36 111.15-24.79L111.15-24.79Q111.87-23.22 110.84-22.23L110.84-22.23Q109.71-21.24 108.13-22.23L108.13-22.23Q107.46-24.57 105.03-26.82ZM131-7.74L131.49-7.74 131.63-1.71Q132.97-1.13 132.97 0.04L132.97 0.04Q132.97 1.35 131.35 1.98L131.35 1.98Q129.78 2.61 125.78 2.61L125.78 2.61 122.35 2.61Q119.75 2.61 118.94 1.84 118.13 1.08 118.13-1.08L118.13-1.08 118.13-13.63 105.53-13.63 105.53-10.35Q112.5-9.63 114.97-6.3L114.97-6.3Q116.37-4.41 115.52-2.97L115.52-2.97Q114.7-1.57 112.77-2.21L112.77-2.21Q110.52-5.54 105.48-8.78L105.48-8.78Q105.34-7.33 104.98-6.08 104.63-4.81 103.72-3.33L103.72-3.33Q102.83-1.89 101.43-0.67 100.03 0.54 97.69 1.71L97.69 1.71Q95.36 2.92 92.25 3.78L92.25 3.78 91.94 3.19Q94.81 1.84 96.75 0.22 98.69-1.4 99.63-3.15L99.63-3.15Q100.62-4.95 100.98-6.57L100.98-6.57Q101.39-8.23 101.39-10.17L101.39-10.17 101.39-14.94 117.67-14.94Q117.94-17.28 121.05-17.28L121.05-17.28Q124.11-16.2 123.84-13.86L123.84-13.86Q123.44-13.37 122.31-13.18L122.31-13.18 122.31-2.07Q122.31-1.62 122.49-1.48L122.49-1.48Q122.72-1.35 123.48-1.35L123.48-1.35 128.52-1.35Q129.06-1.4 129.33-1.93L129.33-1.93Q129.74-2.7 131-7.74L131-7.74ZM139.46-37.26L139.46-37.26 139.81-37.62Q145.71-36.9 147.19-33.98L147.19-33.98Q148.09-32.27 147.01-31.05L147.01-31.05Q145.84-29.83 144.04-30.78L144.04-30.78Q143.91-30.87 143.78-30.96L143.78-30.96Q142.88-34.2 139.46-37.26ZM136.35-26.82L136.35-26.82 136.75-27.18Q142.43-26.59 143.82-23.8L143.82-23.8Q144.63-22.14 143.5-20.97L143.5-20.97Q142.34-19.75 140.58-20.79L140.58-20.79Q139.63-23.98 136.35-26.82ZM147.28-24.03L147.28-24.03 147.91-24.21Q152.24-20.61 152.41-16.74L152.41-16.74Q152.46-14.49 151.2-13.77L151.2-13.77Q150.16-13.14 149.09-14.35L149.09-14.35Q149.44-18.68 147.28-24.03ZM152.78-17.68L152.78-37.71 156.6-37.17 156.6-17.68Q156.56-10.3 154.35-4.95L154.35-4.95Q152.19 0.4 146.84 3.92L146.84 3.92 146.25 3.42Q149.9-0.45 151.34-5.54L151.34-5.54Q152.78-10.66 152.78-17.68L152.78-17.68ZM157.09-24.03L157.09-24.03 157.72-24.25Q161.82-20.61 161.87-16.88L161.87-16.88Q161.87-14.76 160.69-14.22L160.69-14.22Q159.79-13.81 158.94-14.76L158.94-14.76Q159.3-18.77 157.09-24.03ZM162.45 1.8L162.45-36.05 166.14-35.5 166.14 0.45Q166.14 0.81 165.15 1.3 164.16 1.8 163.22 1.8L163.22 1.8 162.45 1.8ZM166.37-24.07L166.37-24.07 167.04-24.25Q171.41-20.75 171.72-17.01L171.72-17.01Q171.9-14.85 170.69-14.17L170.69-14.17Q169.78-13.68 168.84-14.67L168.84-14.67Q168.97-18.9 166.37-24.07ZM172.17 3.6L172.17-37.66 176.04-37.08 176.04 2.11Q176.04 2.52 174.96 3.06L174.96 3.06Q173.93 3.6 172.98 3.6L172.98 3.6 172.17 3.6ZM148.72-29.79L147.28-24.07Q144.9-14.76 144.22-11.79L144.22-11.79Q143.64-9.09 143.69-7.65L143.69-7.65Q143.69-6.84 144.5-4.37 145.31-1.89 145.22 0.36L145.22 0.36Q145.17 1.89 144.27 2.83L144.27 2.83Q143.41 3.78 142.06 3.78L142.06 3.78Q140.4 3.78 140.09 1.48L140.09 1.48Q140.63-1.98 140.49-4.63 140.35-7.29 139.63-7.79L139.63-7.79Q138.82-8.37 137.38-8.5L137.38-8.5 137.38-9.4 139.32-9.4Q139.77-9.4 140-9.54L140-9.54Q140.22-9.72 140.53-10.39L140.53-10.39Q141.3-11.97 148-29.97L148-29.97 148.72-29.79Z" transform="translate(-1.5299999713897705, 38.02000045776367)"></path></g> <!----> <!----> <!----> <!----> <!----> <!----> <!----></g></g> <g data-gra="path-slogan" fill-rule="" class="tp-slogan iconsvg-slogansvg" fill="#25263a" transform="translate(24.629173278808594,47.94000244140625)"><!----> <!----> <g transform="scale(1, 1)"><g transform="scale(1)"><path d="M7.17-6.09L7.17-6.09L6.09-6.09Q6-7.73 3.94-7.83L3.94-7.83Q2.02-7.78 2.02-6.33L2.02-6.33Q2.02-5.39 3.05-5.25L3.05-5.25L5.48-4.69Q7.41-4.22 7.41-2.34L7.41-2.34Q7.36 0.05 4.03 0.14L4.03 0.14Q2.20 0.14 1.45-0.61L1.45-0.61Q0.52-1.31 0.56-2.77L0.56-2.77L1.69-2.77Q1.73-0.80 4.03-0.75L4.03-0.75Q6.28-0.80 6.33-2.20L6.33-2.20Q6.52-3.38 4.45-3.75L4.45-3.75L2.67-4.13Q0.84-4.64 0.84-6.19L0.84-6.19Q0.98-8.72 3.84-8.81L3.84-8.81Q7.08-8.81 7.17-6.09ZM10.03-5.06L14.53-5.06L14.53-8.58L15.70-8.58L15.70 0L14.53 0L14.53-3.98L10.03-3.98L10.03 0L8.86 0L8.86-8.58L10.03-8.58L10.03-5.06ZM18.80-1.03L23.95-1.03L23.95 0L17.63 0L17.63-8.58L23.86-8.58L23.86-7.59L18.80-7.59L18.80-4.92L23.48-4.92L23.48-3.89L18.80-3.89L18.80-1.03ZM26.86-8.58L31.17-1.64L31.17-8.58L32.30-8.58L32.30 0L30.98 0L26.63-6.94L26.58-6.94L26.58 0L25.45 0L25.45-8.58L26.86-8.58ZM34.92-1.03L40.22-1.03L40.22 0L33.47 0L33.47-0.94L38.72-7.59L33.84-7.59L33.84-8.58L40.22-8.58L40.22-7.59L34.92-1.03ZM42.52-5.06L47.02-5.06L47.02-8.58L48.19-8.58L48.19 0L47.02 0L47.02-3.98L42.52-3.98L42.52 0L41.34 0L41.34-8.58L42.52-8.58L42.52-5.06ZM51.28-1.03L56.44-1.03L56.44 0L50.11 0L50.11-8.58L56.34-8.58L56.34-7.59L51.28-7.59L51.28-4.92L55.97-4.92L55.97-3.89L51.28-3.89L51.28-1.03ZM59.34-8.58L63.66-1.64L63.66-8.58L64.78-8.58L64.78 0L63.47 0L59.11-6.94L59.06-6.94L59.06 0L57.94 0L57.94-8.58L59.34-8.58ZM75.42-3.89L71.20-3.89L71.20 0L70.03 0L70.03-8.58L75.98-8.58L75.98-7.59L71.20-7.59L71.20-4.92L75.42-4.92L75.42-3.89ZM82.83 0L81.98-2.48L78.52-2.48L77.63 0L76.45 0L79.69-8.58L81-8.58L84.09 0L82.83 0ZM80.25-7.31L78.89-3.52L81.56-3.52L80.30-7.31L80.25-7.31ZM86.53-8.58L90.84-1.64L90.84-8.58L91.97-8.58L91.97 0L90.66 0L86.30-6.94L86.25-6.94L86.25 0L85.13 0L85.13-8.58L86.53-8.58ZM94.59-1.03L99.89-1.03L99.89 0L93.14 0L93.14-0.94L98.39-7.59L93.52-7.59L93.52-8.58L99.89-8.58L99.89-7.59L94.59-1.03ZM102.19-5.06L106.69-5.06L106.69-8.58L107.86-8.58L107.86 0L106.69 0L106.69-3.98L102.19-3.98L102.19 0L101.02 0L101.02-8.58L102.19-8.58L102.19-5.06ZM116.44-4.27L116.44-4.27Q116.25-7.64 113.44-7.83L113.44-7.83Q110.58-7.69 110.44-4.27L110.44-4.27Q110.58-0.94 113.44-0.80L113.44-0.80Q116.25-0.98 116.44-4.27ZM117.61-4.27L117.61-4.27Q117.33 0 113.44 0.14L113.44 0.14Q109.50 0 109.22-4.27L109.22-4.27Q109.45-8.72 113.44-8.81L113.44-8.81Q117.33-8.67 117.61-4.27ZM124.64-3.19L124.64-8.58L125.81-8.58L125.81-3.05Q125.67 0.05 122.30 0.14L122.30 0.14Q119.16 0.05 119.02-2.86L119.02-2.86L119.02-8.58L120.19-8.58L120.19-3.19Q120.23-0.84 122.34-0.80L122.34-0.80Q124.64-0.84 124.64-3.19L124.64-3.19Z" transform="translate(-0.5602678571428572, 8.8125)"></path></g></g></g></g></g><defs v-gra="od"></defs></svg>